<svg width="404" height="88" xmlns="http://www.w3.org/2000/svg">
 <!-- Created with Method Draw - http://github.com/duopixel/Method-Draw/ -->

 <g>
  <title>background</title>
  <rect x="-1" y="-1" width="406" height="90" id="canvas_background" fill="none"/>
 </g>
 <g>
  <title>Layer 1</title>
  <metadata>image/svg+xmlOpenclipart</metadata>
  <g id="svg_23" stroke="null">
   <g id="svg_13" transform="matrix(0.24967572655015005,0,0,0.21037264216246981,-14392.955616531366,-2645.9299527637336) " stroke="null">
    <g id="svg_14" transform="matrix(5.395,0.077508,0.079493,5.5287,-1860.2,-2020) " fill="#000000" stroke="null">
     <path id="svg_21" d="m11006.61876,2505.51655s-9.325,5.9743 -9.7748,11.767c-0.559,7.1988 7.7926,12.254 7.0226,19.437c-0.56942,5.3126 -9.2662,8.0095 -9.8248,13.323c-0.3991,3.7975 4.9124,10.547 4.9124,10.547s0.23543,-5.8973 1.8422,-8.3268c3.1335,-4.7379 11.127,-6.3211 12.756,-11.641c2.78,-9.0811 -9.9083,-15.965 -10.165,-25.278c-0.14698,-5.3246 3.2322,-9.8286 3.2322,-9.8286l-0.0008,0.0004z" fill="#ffffff" stroke-width="0" stroke="null"/>
     <path id="svg_20" d="m11021.11876,2512.19655c-9.785,-1.3457 -0.12959,10.359 1.4912,12.757c-5.0366,-10.077 -6.1808,-11.127 1.7132,-12.236c2.0146,-1.0306 0.1474,-0.0599 -3.2044,-0.52087l0,-0.00013z" fill="#ffffff" stroke-width="0" stroke="null"/>
     <path id="svg_19" d="m11061.04876,2503.43655c-3.842,-2.7254 -15.029,1.9487 -16.254,5.681c1.979,-2.7908 12.351,-6.1595 16.193,-3.434c1.3732,0.97409 2.1141,-0.79046 0.0606,-2.247l0.0004,0z" fill="#ffffff" stroke-width="0" stroke="null"/>
     <path id="svg_18" d="m11004.65876,2513.90655c0,6.9183 10.48,11.807 13.121,19.052c1.7022,4.6695 1.3307,15.472 1.4302,14.842l-0.005,-0.10567s2.226,-10.464 0.78543,-15.398c-2.1289,-7.2906 -12.383,-13.057 -13.224,-18.555c-2.9472,-19.271 38.543,-34.835 51.549,-18.91c-0.46028,-0.69322 -1.1241,-1.6503 -1.7842,-2.1279c-16.109,-14.474 -51.872,0.33911 -51.872,21.202l-0.00043,0.00057z" fill="#ffffff" stroke="null"/>
     <path id="svg_17" d="m11061.10541,2500.33077c-0.33263,0.3006 -0.95821,0.01263 -1.39728,-0.6432c-0.43907,-0.65583 -0.52535,-1.43116 -0.19274,-1.73173c0.12706,-0.11483 0.30389,-0.14749 0.50522,-0.09328" fill="#ffffff" stroke-opacity="0" stroke="null"/>
     <path id="svg_16" d="m11059.52876,2497.11655l-4.8125,0.125l0.3125,1.625l4.2188,-0.0312c-0.10324,-0.41368 -0.0829,-0.78088 0.125,-0.96875c0.0713,-0.0645 0.18298,-0.11317 0.28125,-0.125l-0.0625,-0.59375l-0.0625,-0.0312l-0.00005,-0.0001z" fill="#ffffff" stroke="null"/>
     <path id="svg_15" d="m11059.70876,2499.90655l-3.3125,0.0625l0.34375,1.5l4.5,-0.0625l-0.25,-0.90625c-0.32659,0.20259 -0.87584,-0.0429 -1.2812,-0.59375l-0.00005,0z" fill="#ffffff" stroke="null"/>
    </g>
   </g>
  </g>
  <text fill="#ffffff" stroke-width="0" stroke-opacity="null" x="112.79082" y="37.69191" id="svg_24" font-size="24" font-family="'Palatino Linotype', 'Book Antiqua', Palatino, serif" text-anchor="start" xml:space="preserve" transform="matrix(1.8567306995391846,0,0,2.0544936656951904,-102.09820383414626,-14.647576075047255) " stroke="null" font-weight="bold">Śikha Pariṣad</text>
 </g>
</svg>